<svg width="72" height="72" viewBox="0 0 72 72" fill="none" xmlns="http://www.w3.org/2000/svg">
<g clip-path="url(#clip0_7_83)">
<path d="M13.3481 35.992C13.3466 40.4744 14.6744 44.8565 17.1637 48.5842C19.653 52.3118 23.1919 55.2174 27.3328 56.9335C31.4736 58.6495 36.0304 59.0989 40.4268 58.2249C44.8231 57.3508 48.8614 55.1925 52.0309 52.0229C55.2005 48.8534 57.3588 44.8151 58.2328 40.4188C59.1069 36.0224 58.6575 31.4656 56.9414 27.3248C55.2254 23.1839 52.3198 19.645 48.5922 17.1557C44.8645 14.6664 40.4824 13.3386 36 13.3402C29.9924 13.3402 24.2308 15.7267 19.9827 19.9747C15.7347 24.2228 13.3481 29.9844 13.3481 35.992V35.992Z" fill="url(#paint0_radial_7_83)"/>
<path style="mix-blend-mode:overlay" d="M39.453 33.6661C33.6821 28.9823 31.4601 21.8606 34.4175 17.7442C37.3748 13.6279 44.5205 14.0915 50.3313 18.7753C56.1421 23.4592 58.3242 30.5808 55.3189 34.6812C52.3136 38.7815 45.2239 38.3419 39.453 33.6661Z" fill="url(#paint1_radial_7_83)"/>
<path style="mix-blend-mode:overlay" opacity="0.4" d="M15.9619 41.0036C16.7611 38.5018 20.6137 39.5329 24.6421 43.3215C28.6706 47.1101 31.3242 52.2096 30.5649 54.7194C29.8055 57.2291 25.913 56.1821 21.8766 52.4014C17.8402 48.6208 15.2185 43.4734 15.9619 41.0036Z" fill="url(#paint2_radial_7_83)"/>
<path d="M38.7496 6.6421C38.7496 7.37132 38.4599 8.07069 37.9443 8.58633C37.4286 9.10197 36.7293 9.39165 36 9.39165V9.39165C35.2708 9.39165 34.5715 9.10197 34.0558 8.58633C33.5402 8.07069 33.2505 7.37132 33.2505 6.6421V2.70959C33.2505 2.34889 33.3217 1.99174 33.4599 1.65859C33.5982 1.32545 33.8009 1.02287 34.0563 0.768185C34.3117 0.513502 34.6149 0.311725 34.9484 0.174419C35.282 0.0371137 35.6393 -0.0330224 36 -0.0319708V-0.0319708C36.3607 -0.0330224 36.7181 0.0371137 37.0517 0.174419C37.3852 0.311725 37.6884 0.513502 37.9438 0.768185C38.1992 1.02287 38.4019 1.32545 38.5402 1.65859C38.6784 1.99174 38.7496 2.34889 38.7496 2.70959V6.6421Z" fill="url(#paint3_radial_7_83)"/>
<path d="M17.1847 13.3002C17.4414 13.5543 17.6451 13.8569 17.7841 14.1902C17.9232 14.5236 17.9948 14.8812 17.9948 15.2424C17.9948 15.6036 17.9232 15.9613 17.7841 16.2947C17.6451 16.628 17.4414 16.9305 17.1847 17.1847V17.1847C16.6692 17.6992 15.9707 17.9881 15.2425 17.9881C14.5142 17.9881 13.8157 17.6992 13.3002 17.1847L10.5426 14.4272C10.0282 13.9117 9.73926 13.2132 9.73926 12.4849C9.73926 11.7566 10.0282 11.0581 10.5426 10.5426V10.5426C11.0595 10.0277 11.7593 9.73856 12.4889 9.73856C13.2185 9.73856 13.9183 10.0277 14.4352 10.5426L17.1847 13.3002Z" fill="url(#paint4_radial_7_83)"/>
<path d="M6.65014 33.2504C7.01114 33.2494 7.36877 33.3198 7.7024 33.4577C8.03602 33.5956 8.33903 33.7983 8.59392 34.0539C8.84881 34.3095 9.05055 34.6131 9.18748 34.9471C9.32441 35.2812 9.39382 35.639 9.3917 36V36C9.39276 36.3607 9.32262 36.7181 9.18531 37.0516C9.04801 37.3851 8.84623 37.6883 8.59155 37.9437C8.33687 38.1992 8.03428 38.4018 7.70114 38.5401C7.368 38.6784 7.01084 38.7495 6.65014 38.7495H2.74961C2.38652 38.7527 2.0264 38.6839 1.69004 38.5472C1.35367 38.4104 1.04772 38.2084 0.789859 37.9528C0.531994 37.6971 0.327317 37.3929 0.187642 37.0578C0.0479664 36.7226 -0.0239396 36.3631 -0.0239258 36V36C-0.0239258 35.2708 0.265759 34.5714 0.781401 34.0558C1.29704 33.5401 1.9964 33.2504 2.72563 33.2504H6.65014Z" fill="url(#paint5_radial_7_83)"/>
<path d="M13.3003 54.8153C13.5544 54.5586 13.8569 54.3549 14.1903 54.2159C14.5237 54.0768 14.8813 54.0052 15.2425 54.0052C15.6037 54.0052 15.9614 54.0768 16.2947 54.2159C16.6281 54.3549 16.9306 54.5586 17.1848 54.8153V54.8153C17.4415 55.0694 17.6452 55.372 17.7842 55.7053C17.9233 56.0387 17.9948 56.3963 17.9948 56.7576C17.9948 57.1188 17.9233 57.4764 17.7842 57.8098C17.6452 58.1431 17.4415 58.4457 17.1848 58.6998L14.4352 61.4574C13.9184 61.9723 13.2186 62.2614 12.489 62.2614C11.7594 62.2614 11.0596 61.9723 10.5427 61.4574C10.0278 60.9405 9.73865 60.2407 9.73865 59.5111C9.73865 58.7815 10.0278 58.0817 10.5427 57.5648L13.3003 54.8153Z" fill="url(#paint6_radial_7_83)"/>
<path d="M33.2505 65.3499C33.2494 64.9889 33.3199 64.6313 33.4578 64.2977C33.5957 63.964 33.7983 63.661 34.0539 63.4061C34.3096 63.1512 34.6132 62.9495 34.9472 62.8126C35.2812 62.6756 35.6391 62.6062 36.0001 62.6084V62.6084C36.3608 62.6073 36.7181 62.6774 37.0517 62.8147C37.3852 62.952 37.6884 63.1538 37.9438 63.4085C38.1992 63.6632 38.4019 63.9658 38.5402 64.2989C38.6784 64.6321 38.7496 64.9892 38.7496 65.3499V69.2504C38.7496 69.9797 38.4599 70.679 37.9443 71.1947C37.4286 71.7103 36.7293 72 36.0001 72C35.6394 72 35.2822 71.9288 34.9491 71.7906C34.6159 71.6523 34.3133 71.4496 34.0587 71.1942C33.804 70.9388 33.6022 70.6356 33.4649 70.3021C33.3276 69.9685 33.2574 69.6111 33.2585 69.2504L33.2505 65.3499Z" fill="url(#paint7_radial_7_83)"/>
<path d="M54.8153 58.6998C54.3009 58.1843 54.012 57.4858 54.012 56.7576C54.012 56.0293 54.3009 55.3308 54.8153 54.8153V54.8153C55.0695 54.5586 55.372 54.3549 55.7054 54.2159C56.0388 54.0768 56.3964 54.0052 56.7576 54.0052C57.1188 54.0052 57.4764 54.0768 57.8098 54.2159C58.1432 54.3549 58.4457 54.5586 58.6999 54.8153L61.4574 57.5648C61.9724 58.0817 62.2615 58.7815 62.2615 59.5111C62.2615 60.2407 61.9724 60.9405 61.4574 61.4574C61.2027 61.7131 60.9 61.9159 60.5667 62.0544C60.2334 62.1928 59.8761 62.2641 59.5152 62.2641C59.1543 62.2641 58.7969 62.1928 58.4636 62.0544C58.1303 61.9159 57.8276 61.7131 57.5729 61.4574L54.8153 58.6998Z" fill="url(#paint8_radial_7_83)"/>
<path d="M65.358 38.7416C64.9973 38.7426 64.6399 38.6725 64.3064 38.5352C63.9728 38.3979 63.6696 38.1961 63.4142 37.9414C63.1588 37.6867 62.9561 37.3841 62.8178 37.051C62.6796 36.7179 62.6084 36.3607 62.6084 36V36C62.6084 35.2708 62.8981 34.5714 63.4137 34.0558C63.9294 33.5401 64.6287 33.2504 65.358 33.2504H69.2505C69.6119 33.2494 69.9699 33.3198 70.3039 33.4576C70.638 33.5954 70.9415 33.7979 71.1971 34.0534C71.4526 34.3089 71.6551 34.6125 71.7929 34.9465C71.9307 35.2806 72.0011 35.6386 72 36V36C72.0001 36.3607 71.9289 36.7179 71.7906 37.051C71.6523 37.3841 71.4497 37.6867 71.1942 37.9414C70.9388 38.1961 70.6356 38.3979 70.3021 38.5352C69.9686 38.6725 69.6112 38.7426 69.2505 38.7416H65.358Z" fill="url(#paint9_radial_7_83)"/>
<path d="M58.6999 17.1847C58.1844 17.6992 57.4859 17.9881 56.7576 17.9881C56.0293 17.9881 55.3308 17.6992 54.8153 17.1847V17.1847C54.3009 16.6692 54.012 15.9707 54.012 15.2425C54.012 14.5142 54.3009 13.8157 54.8153 13.3002L57.5729 10.5426C58.0884 10.0282 58.7869 9.73926 59.5152 9.73926C60.2434 9.73926 60.9419 10.0282 61.4574 10.5426C61.9719 11.0581 62.2608 11.7566 62.2608 12.4849C62.2608 13.2132 61.9719 13.9117 61.4574 14.4272L58.6999 17.1847Z" fill="url(#paint10_radial_7_83)"/>
</g>
<defs>
<radialGradient id="paint0_radial_7_83" cx="0" cy="0" r="1" gradientUnits="userSpaceOnUse" gradientTransform="translate(41.1794 21.7966) rotate(180) scale(43.0098)">
<stop stop-color="#FFF8C7"/>
<stop offset="0.16" stop-color="#FFE436"/>
<stop offset="1" stop-color="#FE761C"/>
</radialGradient>
<radialGradient id="paint1_radial_7_83" cx="0" cy="0" r="1" gradientUnits="userSpaceOnUse" gradientTransform="translate(45.652 18.8849) rotate(126.146) scale(9.1973 13.4388)">
<stop stop-color="white"/>
<stop offset="0.1" stop-color="white" stop-opacity="0.85"/>
<stop offset="0.29" stop-color="white" stop-opacity="0.59"/>
<stop offset="0.47" stop-color="white" stop-opacity="0.38"/>
<stop offset="0.63" stop-color="white" stop-opacity="0.22"/>
<stop offset="0.78" stop-color="white" stop-opacity="0.1"/>
<stop offset="0.91" stop-color="white" stop-opacity="0.03"/>
<stop offset="1" stop-color="white" stop-opacity="0"/>
</radialGradient>
<radialGradient id="paint2_radial_7_83" cx="0" cy="0" r="1" gradientUnits="userSpaceOnUse" gradientTransform="translate(50676 3169.53) rotate(-136.766) scale(185.88 87.4542)">
<stop stop-color="white"/>
<stop offset="0.1" stop-color="white" stop-opacity="0.85"/>
<stop offset="0.29" stop-color="white" stop-opacity="0.59"/>
<stop offset="0.47" stop-color="white" stop-opacity="0.38"/>
<stop offset="0.63" stop-color="white" stop-opacity="0.22"/>
<stop offset="0.78" stop-color="white" stop-opacity="0.1"/>
<stop offset="0.91" stop-color="white" stop-opacity="0.03"/>
<stop offset="1" stop-color="white" stop-opacity="0"/>
</radialGradient>
<radialGradient id="paint3_radial_7_83" cx="0" cy="0" r="1" gradientUnits="userSpaceOnUse" gradientTransform="translate(636.504 342.423) scale(51.4718 88.2052)">
<stop stop-color="#FFF8C7"/>
<stop offset="0.16" stop-color="#FFE436"/>
<stop offset="1" stop-color="#FE761C"/>
</radialGradient>
<radialGradient id="paint4_radial_7_83" cx="0" cy="0" r="1" gradientUnits="userSpaceOnUse" gradientTransform="translate(2031.33 -5523.8) rotate(-45) scale(77.2715 77.2156)">
<stop stop-color="#FFF8C7"/>
<stop offset="0.16" stop-color="#FFE436"/>
<stop offset="1" stop-color="#FE761C"/>
</radialGradient>
<radialGradient id="paint5_radial_7_83" cx="0" cy="0" r="1" gradientUnits="userSpaceOnUse" gradientTransform="translate(-787.491 -12049.1) rotate(-90) scale(88.1307 51.4728)">
<stop stop-color="#FFF8C7"/>
<stop offset="0.16" stop-color="#FFE436"/>
<stop offset="1" stop-color="#FE761C"/>
</radialGradient>
<radialGradient id="paint6_radial_7_83" cx="0" cy="0" r="1" gradientUnits="userSpaceOnUse" gradientTransform="translate(-7113.73 -11585.6) rotate(-135) scale(77.2781)">
<stop stop-color="#FFF8C7"/>
<stop offset="0.16" stop-color="#FFE436"/>
<stop offset="1" stop-color="#FE761C"/>
</radialGradient>
<radialGradient id="paint7_radial_7_83" cx="0" cy="0" r="1" gradientUnits="userSpaceOnUse" gradientTransform="translate(-7633.2 -9523.46) rotate(180) scale(51.4719 87.9063)">
<stop stop-color="#FFF8C7"/>
<stop offset="0.16" stop-color="#FFE436"/>
<stop offset="1" stop-color="#FE761C"/>
</radialGradient>
<radialGradient id="paint8_radial_7_83" cx="0" cy="0" r="1" gradientUnits="userSpaceOnUse" gradientTransform="translate(-13234.2 -2386.74) rotate(135) scale(77.2156 77.3026)">
<stop stop-color="#FFF8C7"/>
<stop offset="0.16" stop-color="#FFE436"/>
<stop offset="1" stop-color="#FE761C"/>
</radialGradient>
<radialGradient id="paint9_radial_7_83" cx="0" cy="0" r="1" gradientUnits="userSpaceOnUse" gradientTransform="translate(-6198.7 2958.71) rotate(90) scale(87.906 51.3971)">
<stop stop-color="#FFF8C7"/>
<stop offset="0.16" stop-color="#FFE436"/>
<stop offset="1" stop-color="#FE761C"/>
</radialGradient>
<radialGradient id="paint10_radial_7_83" cx="0" cy="0" r="1" gradientUnits="userSpaceOnUse" gradientTransform="translate(-3963.22 3677.1) rotate(45) scale(77.2092)">
<stop stop-color="#FFF8C7"/>
<stop offset="0.16" stop-color="#FFE436"/>
<stop offset="1" stop-color="#FE761C"/>
</radialGradient>
<clipPath id="clip0_7_83">
<rect width="72" height="72" fill="white"/>
</clipPath>
</defs>
</svg>
